<?xml version="1.0" encoding="UTF-8" standalone="no"?>
<!-- Created with Inkscape (http://www.inkscape.org/) -->

<svg
   xmlns:dc="http://purl.org/dc/elements/1.1/"
   xmlns:cc="http://creativecommons.org/ns#"
   xmlns:rdf="http://www.w3.org/1999/02/22-rdf-syntax-ns#"
   xmlns:svg="http://www.w3.org/2000/svg"
   xmlns="http://www.w3.org/2000/svg"
   xmlns:sodipodi="http://sodipodi.sourceforge.net/DTD/sodipodi-0.dtd"
   xmlns:inkscape="http://www.inkscape.org/namespaces/inkscape"
   width="32px"
   height="32px"
   id="svg3344"
   version="1.1"
   inkscape:version="0.48.4 r9939"
   sodipodi:docname="New document 4">
  <defs
     id="defs3346" />
  <sodipodi:namedview
     id="base"
     pagecolor="#ffffff"
     bordercolor="#666666"
     borderopacity="1.0"
     inkscape:pageopacity="0.0"
     inkscape:pageshadow="2"
     inkscape:zoom="11.197802"
     inkscape:cx="16"
     inkscape:cy="19.57213"
     inkscape:current-layer="layer1"
     showgrid="true"
     inkscape:grid-bbox="true"
     inkscape:document-units="px"
     inkscape:window-width="1920"
     inkscape:window-height="1056"
     inkscape:window-x="0"
     inkscape:window-y="24"
     inkscape:window-maximized="1" />
  <metadata
     id="metadata3349">
    <rdf:RDF>
      <cc:Work
         rdf:about="">
        <dc:format>image/svg+xml</dc:format>
        <dc:type
           rdf:resource="http://purl.org/dc/dcmitype/StillImage" />
        <dc:title></dc:title>
      </cc:Work>
    </rdf:RDF>
  </metadata>
  <g
     id="layer1"
     inkscape:label="Layer 1"
     inkscape:groupmode="layer">
    <g
       transform="matrix(0.19154074,0,0,0.19154074,-15.504395,-38.910767)"
       id="g3311">
      <path
         style="fill:#2e3192;fill-rule:evenodd"
         inkscape:connector-curvature="0"
         class="st2"
         d="m 144.7,317.5 c -36.1,-9.4 -44.8,-41 -21.2,-60.8 l 0,-0.1 -8.7,-25.2 c -49.3,29.2 -35.9,84.7 35.3,100.7 l -5.4,-14.6 z"
         id="path3226" />
      <path
         style="fill:#00723a;fill-rule:evenodd"
         inkscape:connector-curvature="0"
         class="st3"
         d="M 185.9,220.2 162,312.5 138,221.3 c -7.3,2.3 -13.8,5.1 -19.6,8.2 l 7.4,25.5 0.1,0.3 c 0.1,0.1 0.1,0.3 0.1,0.4 l 36.6,100.2 33.6,-103 7.5,-25.6 c -5.4,-2.7 -11.3,-5.1 -17.8,-7.1 z"
         id="path3228" />
      <path
         style="fill:#2e3192;fill-rule:evenodd"
         inkscape:connector-curvature="0"
         class="st2"
         d="m 207.3,228.9 -8.8,25.4 c 19.6,14.9 25.5,52.1 -19.8,62.8 l -5,14.7 C 253,318.2 265.2,259 207.3,228.9 z"
         id="path3230" />
    </g>
  </g>
</svg>
