<?xml version="1.0" encoding="utf-8"?>
<!-- Generator: Adobe Illustrator 19.0.0, SVG Export Plug-In . SVG Version: 6.00 Build 0)  -->
<!DOCTYPE svg PUBLIC "-//W3C//DTD SVG 1.1//EN" "http://www.w3.org/Graphics/SVG/1.1/DTD/svg11.dtd">
<svg version="1.1" id="Layer_1" xmlns="http://www.w3.org/2000/svg" xmlns:xlink="http://www.w3.org/1999/xlink" x="0px" y="0px"
	 viewBox="0 0 841.9 595.3" style="enable-background:new 0 0 841.9 595.3;" xml:space="preserve">
<style type="text/css">
	.st0{fill:#00723A;}
	.st1{fill:#2E3192;}
	.st2{fill-rule:evenodd;clip-rule:evenodd;fill:#2E3192;}
	.st3{fill-rule:evenodd;clip-rule:evenodd;fill:#00723A;}
</style>
<g>
	<g>
		<path class="st0" d="M259.9,238.1l7.8-18.4l7.5,18.4h-1.8l-2.3-6h-7.2l-2.4,6H259.9z M264.4,230.7h6.2l-3-7.7L264.4,230.7z"/>
		<path class="st0" d="M299.9,224.9c-0.7-1.1-1.6-2-2.7-2.5s-2.2-0.9-3.6-0.9c-2.2,0-4,0.7-5.4,2.2s-2.1,3.4-2.1,5.8
			c0,1.1,0.2,2.1,0.6,3c0.4,0.9,0.9,1.8,1.6,2.5c0.7,0.7,1.5,1.3,2.4,1.6c0.9,0.4,1.8,0.5,2.9,0.5c2,0,3.6-0.6,4.9-1.8
			c1.2-1.2,1.9-2.7,1.9-4.6h-6.1v-1.4h7.9v0.2c0,2.8-0.8,5-2.3,6.6c-1.5,1.6-3.7,2.4-6.4,2.4c-2.7,0-4.9-0.9-6.5-2.6s-2.5-4-2.5-6.7
			c0-1.3,0.2-2.5,0.6-3.6c0.4-1.1,1-2.1,1.8-3c0.9-0.9,1.8-1.6,2.9-2s2.3-0.7,3.6-0.7c1.8,0,3.3,0.3,4.6,1s2.3,1.6,3,2.9
			L299.9,224.9z"/>
		<path class="st0" d="M325.1,238.1h-2l-6.2-8.5h-1v8.5h-1.6v-17.7h3.3c1.9,0,3.4,0.4,4.3,1.2c1,0.8,1.4,2,1.4,3.6
			c0,1.4-0.4,2.5-1.2,3.3c-0.8,0.8-1.9,1.2-3.4,1.2L325.1,238.1z M315.9,221.8v6.6h1.6c1.5,0,2.6-0.2,3.1-0.7
			c0.6-0.5,0.9-1.3,0.9-2.5c0-1.2-0.3-2.1-0.9-2.6c-0.6-0.5-1.7-0.8-3.1-0.8H315.9z"/>
		<path class="st0" d="M354.3,229.3c0,1.3-0.2,2.4-0.7,3.6c-0.5,1.1-1.2,2.1-2.1,3c-0.9,0.9-1.9,1.6-3.1,2c-1.1,0.5-2.4,0.7-3.6,0.7
			c-1.3,0-2.5-0.2-3.6-0.7c-1.1-0.5-2.2-1.1-3.1-2c-0.9-0.9-1.6-1.9-2.1-3s-0.7-2.3-0.7-3.6c0-1.3,0.2-2.5,0.7-3.6
			c0.5-1.1,1.2-2.1,2.1-3c0.9-0.9,1.9-1.5,3-2s2.4-0.7,3.7-0.7c1.3,0,2.5,0.2,3.7,0.7c1.1,0.5,2.2,1.1,3.1,2c0.9,0.9,1.6,1.9,2.1,3
			C354,226.8,354.3,228,354.3,229.3z M344.8,237.2c1.1,0,2-0.2,3-0.6c0.9-0.4,1.8-1,2.5-1.7c0.7-0.8,1.3-1.6,1.7-2.6
			c0.4-1,0.6-2,0.6-3c0-1.1-0.2-2.1-0.6-3c-0.4-0.9-1-1.8-1.7-2.6c-0.7-0.7-1.6-1.3-2.5-1.7c-0.9-0.4-1.9-0.6-3-0.6
			c-1.1,0-2,0.2-3,0.6s-1.8,1-2.5,1.7c-0.7,0.8-1.3,1.6-1.7,2.6c-0.4,0.9-0.6,1.9-0.6,3c0,1.1,0.2,2.1,0.6,3c0.4,0.9,1,1.8,1.7,2.6
			c0.7,0.8,1.6,1.3,2.5,1.7S343.7,237.2,344.8,237.2z"/>
		<path class="st0" d="M370.6,238.8l-6.9-18.4h1.9l5.1,14.4l5.4-14.4h1.8L370.6,238.8z"/>
		<path class="st0" d="M388.4,238.1v-17.7h8.8v1.5h-7.2v5.6h7.2v1.5h-7.2v7.6h7.2v1.5H388.4z"/>
		<path class="st0" d="M413,238.1v-16.2h-4.9v-1.5h11.4v1.5h-4.9v16.2H413z"/>
		<path class="st0" d="M430.9,238.1v-17.7h8.8v1.5h-7.2v5.6h7.2v1.5h-7.2v7.6h7.2v1.5H430.9z"/>
		<path class="st0" d="M463.1,238.1h-2l-6.2-8.5h-1v8.5h-1.6v-17.7h3.3c1.9,0,3.4,0.4,4.3,1.2c1,0.8,1.4,2,1.4,3.6
			c0,1.4-0.4,2.5-1.2,3.3c-0.8,0.8-1.9,1.2-3.4,1.2L463.1,238.1z M453.9,221.8v6.6h1.6c1.5,0,2.6-0.2,3.1-0.7
			c0.6-0.5,0.9-1.3,0.9-2.5c0-1.2-0.3-2.1-0.9-2.6s-1.7-0.8-3.1-0.8H453.9z"/>
		<path class="st0" d="M474.1,238.1v-17.7h1.6v17.7H474.1z"/>
		<path class="st0" d="M488.8,238.1v-18.5l12.6,14.8v-14.1h1.5v18.3l-12.6-14.9v14.4H488.8z"/>
		<path class="st0" d="M513.6,238.1l7.8-18.4l7.5,18.4h-1.8l-2.3-6h-7.2l-2.4,6H513.6z M518.1,230.7h6.2l-3-7.7L518.1,230.7z
			 M519.6,218.7l2.6-4.2h2l-3.4,4.2H519.6z"/>
		<path class="st0" d="M550.3,238.1h-2l-6.2-8.5h-1v8.5h-1.6v-17.7h3.3c1.9,0,3.4,0.4,4.3,1.2c1,0.8,1.4,2,1.4,3.6
			c0,1.4-0.4,2.5-1.2,3.3c-0.8,0.8-1.9,1.2-3.4,1.2L550.3,238.1z M541.1,221.8v6.6h1.6c1.5,0,2.6-0.2,3.1-0.7
			c0.6-0.5,0.9-1.3,0.9-2.5c0-1.2-0.3-2.1-0.9-2.6s-1.7-0.8-3.1-0.8H541.1z"/>
		<path class="st0" d="M561.3,238.1v-17.7h1.6v17.7H561.3z"/>
		<path class="st0" d="M573.6,238.1l7.8-18.4l7.5,18.4h-1.8l-2.3-6h-7.2l-2.4,6H573.6z M578.2,230.7h6.2l-3-7.7L578.2,230.7z"/>
	</g>
	<g>
		<path class="st0" d="M91.5,375.1l1.3-0.7c0.2,0.8,0.7,1.4,1.2,1.9c0.6,0.4,1.3,0.7,2.1,0.7c1,0,1.8-0.3,2.4-0.9
			c0.6-0.6,0.9-1.5,0.9-2.5c0-0.8-0.2-1.4-0.6-2s-1.2-1.1-2.5-1.8c-1.6-0.9-2.7-1.6-3.3-2.3c-0.5-0.7-0.8-1.5-0.8-2.4
			c0-1.2,0.4-2.1,1.2-2.8c0.8-0.7,1.8-1.1,3.1-1.1c0.8,0,1.5,0.2,2.1,0.5c0.6,0.3,1.1,0.9,1.5,1.6l-1.2,0.7c-0.2-0.5-0.6-0.8-1-1.1
			s-1-0.4-1.5-0.4c-0.8,0-1.4,0.2-1.9,0.7s-0.7,1.1-0.7,1.9c0,1.1,0.9,2.2,2.8,3.2c0.3,0.2,0.6,0.3,0.8,0.4c1.4,0.8,2.3,1.5,2.8,2.2
			c0.5,0.7,0.7,1.6,0.7,2.7c0,1.5-0.4,2.6-1.3,3.5c-0.9,0.9-2,1.3-3.5,1.3c-1.1,0-2-0.3-2.8-0.8S92,376.1,91.5,375.1z"/>
		<path class="st0" d="M137,369.7c0,1.2-0.2,2.3-0.7,3.3c-0.4,1-1.1,2-1.9,2.8c-0.8,0.8-1.8,1.4-2.9,1.9s-2.2,0.6-3.4,0.6
			c-1.2,0-2.3-0.2-3.4-0.6c-1.1-0.4-2-1.1-2.8-1.9c-0.8-0.8-1.5-1.8-1.9-2.8c-0.4-1-0.7-2.1-0.7-3.3c0-1.2,0.2-2.3,0.7-3.3
			c0.4-1,1.1-2,1.9-2.8c0.8-0.8,1.8-1.4,2.8-1.8c1.1-0.4,2.2-0.6,3.4-0.6c1.2,0,2.3,0.2,3.4,0.6c1.1,0.4,2,1,2.8,1.8
			c0.8,0.8,1.5,1.8,1.9,2.8C136.8,367.4,137,368.5,137,369.7z M128.2,376.9c1,0,1.9-0.2,2.8-0.5c0.9-0.4,1.6-0.9,2.3-1.6
			c0.7-0.7,1.2-1.5,1.6-2.4s0.5-1.8,0.5-2.8c0-1-0.2-1.9-0.5-2.8c-0.4-0.9-0.9-1.7-1.6-2.4c-0.7-0.7-1.5-1.2-2.3-1.6
			c-0.9-0.4-1.8-0.5-2.8-0.5c-1,0-1.9,0.2-2.7,0.5c-0.9,0.4-1.6,0.9-2.3,1.6c-0.7,0.7-1.2,1.5-1.6,2.4c-0.4,0.9-0.5,1.8-0.5,2.8
			c0,1,0.2,1.9,0.5,2.8c0.4,0.9,0.9,1.7,1.6,2.4c0.7,0.7,1.5,1.2,2.3,1.6S127.2,376.9,128.2,376.9z"/>
		<path class="st0" d="M156.3,377.8v-16.4h1.5v15h5.6v1.4H156.3z"/>
		<path class="st0" d="M181.4,361.4h1.5v10.7c0,1.6,0.4,2.8,1.1,3.6c0.7,0.8,1.9,1.2,3.4,1.2c1.5,0,2.6-0.4,3.4-1.2
			c0.7-0.8,1.1-2,1.1-3.6v-10.7h1.5v10.2c0,2.2-0.5,3.9-1.5,5c-1,1.1-2.5,1.6-4.5,1.6c-2,0-3.5-0.5-4.5-1.6c-1-1.1-1.5-2.7-1.5-5
			V361.4z"/>
		<path class="st0" d="M226.5,364.4c-0.8-0.7-1.6-1.2-2.5-1.6c-0.9-0.3-1.7-0.5-2.7-0.5c-2.1,0-3.8,0.7-5.2,2s-2,3.1-2,5.2
			c0,1.1,0.2,2.1,0.5,2.9c0.3,0.9,0.8,1.6,1.5,2.3c0.7,0.7,1.4,1.2,2.3,1.5c0.8,0.3,1.8,0.5,2.7,0.5c0.9,0,1.9-0.2,2.8-0.5
			c0.9-0.3,1.7-0.8,2.5-1.4v1.7c-0.8,0.5-1.7,0.9-2.6,1.1s-1.8,0.4-2.7,0.4c-1.2,0-2.3-0.2-3.4-0.6c-1.1-0.4-2-1-2.8-1.8
			c-0.8-0.8-1.4-1.7-1.8-2.8c-0.4-1-0.6-2.2-0.6-3.4c0-1.2,0.2-2.4,0.6-3.4s1-2,1.8-2.7c0.8-0.8,1.7-1.3,2.8-1.8
			c1.1-0.4,2.2-0.6,3.4-0.6c1,0,2,0.1,2.9,0.4s1.7,0.7,2.4,1.3L226.5,364.4z M218.6,382.1v-0.8c0.7,0.1,1.3,0.2,1.6,0.3
			c0.4,0,0.6,0.1,0.9,0.1c0.5,0,0.8-0.1,1.1-0.2s0.3-0.4,0.3-0.7c0-0.3-0.1-0.6-0.4-0.8c-0.3-0.2-0.7-0.2-1.2-0.2c0,0-0.1,0-0.2,0
			c-0.1,0-0.2,0-0.2,0v-1.9h0.7v1.1h0.2c0.8,0,1.4,0.1,1.8,0.4c0.4,0.3,0.6,0.7,0.6,1.3c0,0.6-0.2,1.1-0.6,1.4s-1,0.5-1.8,0.5
			c-0.4,0-0.8,0-1.2-0.1C219.6,382.3,219.1,382.2,218.6,382.1z"/>
		<path class="st0" d="M262.5,369.7c0,1.2-0.2,2.3-0.7,3.3c-0.4,1-1.1,2-1.9,2.8c-0.8,0.8-1.8,1.4-2.9,1.9c-1.1,0.4-2.2,0.6-3.4,0.6
			c-1.2,0-2.3-0.2-3.4-0.6c-1.1-0.4-2-1.1-2.8-1.9c-0.8-0.8-1.5-1.8-1.9-2.8c-0.4-1-0.7-2.1-0.7-3.3c0-1.2,0.2-2.3,0.7-3.3
			c0.4-1,1.1-2,1.9-2.8c0.8-0.8,1.8-1.4,2.8-1.8c1.1-0.4,2.2-0.6,3.4-0.6c1.2,0,2.3,0.2,3.4,0.6c1.1,0.4,2,1,2.8,1.8
			c0.8,0.8,1.5,1.8,1.9,2.8C262.3,367.4,262.5,368.5,262.5,369.7z M253.7,376.9c1,0,1.9-0.2,2.8-0.5c0.9-0.4,1.6-0.9,2.3-1.6
			c0.7-0.7,1.2-1.5,1.6-2.4s0.5-1.8,0.5-2.8c0-1-0.2-1.9-0.5-2.8c-0.4-0.9-0.9-1.7-1.6-2.4c-0.7-0.7-1.5-1.2-2.3-1.6
			c-0.9-0.4-1.8-0.5-2.8-0.5c-1,0-1.9,0.2-2.7,0.5c-0.9,0.4-1.6,0.9-2.3,1.6c-0.7,0.7-1.2,1.5-1.6,2.4c-0.4,0.9-0.5,1.8-0.5,2.8
			c0,1,0.2,1.9,0.5,2.8c0.4,0.9,0.9,1.7,1.6,2.4c0.7,0.7,1.5,1.2,2.3,1.6C251.8,376.7,252.7,376.9,253.7,376.9z M257,356.9
			c-0.2,0.7-0.5,1.2-0.8,1.5s-0.8,0.5-1.4,0.5c-0.1,0-0.2,0-0.4,0c-0.1,0-0.2,0-0.4-0.1l-0.9-0.3c-0.1,0-0.2-0.1-0.3-0.1
			s-0.2,0-0.4,0c-0.2,0-0.4,0.1-0.6,0.2c-0.2,0.1-0.3,0.3-0.4,0.5h-1c0.2-0.6,0.4-1.1,0.8-1.5c0.4-0.3,0.8-0.5,1.4-0.5
			c0.1,0,0.2,0,0.4,0c0.1,0,0.2,0,0.3,0.1l0.9,0.3c0.1,0,0.2,0.1,0.4,0.1c0.1,0,0.2,0,0.3,0c0.3,0,0.5-0.1,0.7-0.2s0.3-0.3,0.4-0.6
			H257z"/>
		<path class="st0" d="M281.8,377.8v-16.4h8.1v1.4h-6.6v5.1h6.6v1.4h-6.6v7.1h6.6v1.4H281.8z"/>
		<path class="st0" d="M308.4,375.1l1.3-0.7c0.2,0.8,0.7,1.4,1.2,1.9c0.6,0.4,1.3,0.7,2.1,0.7c1,0,1.8-0.3,2.4-0.9
			c0.6-0.6,0.9-1.5,0.9-2.5c0-0.8-0.2-1.4-0.6-2s-1.2-1.1-2.5-1.8c-1.6-0.9-2.7-1.6-3.3-2.3c-0.5-0.7-0.8-1.5-0.8-2.4
			c0-1.2,0.4-2.1,1.2-2.8s1.8-1.1,3.1-1.1c0.8,0,1.5,0.2,2.1,0.5c0.6,0.3,1.1,0.9,1.5,1.6l-1.2,0.7c-0.2-0.5-0.6-0.8-1-1.1
			s-1-0.4-1.5-0.4c-0.8,0-1.4,0.2-1.9,0.7s-0.7,1.1-0.7,1.9c0,1.1,0.9,2.2,2.8,3.2c0.3,0.2,0.6,0.3,0.8,0.4c1.4,0.8,2.3,1.5,2.8,2.2
			s0.7,1.6,0.7,2.7c0,1.5-0.4,2.6-1.3,3.5c-0.9,0.9-2,1.3-3.5,1.3c-1.1,0-2-0.3-2.8-0.8S308.8,376.1,308.4,375.1z"/>
		<path class="st0" d="M359.7,377.8v-16.4h8.1v1.4h-6.6v5.1h6.6v1.4h-6.6v7.1h6.6v1.4H359.7z"/>
		<path class="st0" d="M395,378.5l-5.8-13.1l-1.2,12.5h-1.5l2.2-17.1l6.3,14.6l6.5-14.6l2.1,17.1h-1.5l-1.2-12.5L395,378.5z"/>
		<path class="st0" d="M443.1,377.8l7.2-17l6.9,17h-1.6l-2.1-5.5h-6.7l-2.2,5.5H443.1z M447.3,371h5.7l-2.8-7.1L447.3,371z"/>
		<path class="st0" d="M488.1,365.6c-0.7-1-1.5-1.8-2.5-2.3s-2.1-0.8-3.3-0.8c-2,0-3.7,0.7-5,2.1c-1.3,1.4-1.9,3.2-1.9,5.3
			c0,1,0.2,1.9,0.5,2.8c0.3,0.9,0.8,1.6,1.5,2.3c0.7,0.7,1.4,1.2,2.2,1.5s1.7,0.5,2.7,0.5c1.8,0,3.3-0.5,4.5-1.6
			c1.2-1.1,1.7-2.5,1.8-4.2H483v-1.3h7.3v0.2c0,2.6-0.7,4.7-2.1,6.1c-1.4,1.5-3.4,2.2-5.9,2.2c-2.5,0-4.5-0.8-6-2.4
			c-1.5-1.6-2.3-3.7-2.3-6.2c0-1.2,0.2-2.3,0.6-3.3c0.4-1,0.9-2,1.7-2.7c0.8-0.8,1.7-1.5,2.7-1.9c1-0.4,2.1-0.6,3.3-0.6
			c1.7,0,3.1,0.3,4.3,0.9c1.2,0.6,2.1,1.5,2.7,2.6L488.1,365.6z"/>
		<path class="st0" d="M519.4,377.8h-1.8l-5.8-7.8H511v7.8h-1.5v-16.4h3c1.8,0,3.1,0.4,4,1.1c0.9,0.7,1.3,1.9,1.3,3.4
			c0,1.3-0.4,2.3-1.1,3c-0.8,0.7-1.8,1.1-3.1,1.1L519.4,377.8z M511,362.7v6.1h1.5c1.4,0,2.4-0.2,2.9-0.7c0.5-0.4,0.8-1.2,0.8-2.3
			c0-1.1-0.3-1.9-0.8-2.4c-0.6-0.5-1.5-0.7-2.9-0.7H511z"/>
		<path class="st0" d="M554.4,369.7c0,1.2-0.2,2.3-0.7,3.3c-0.4,1-1.1,2-1.9,2.8c-0.8,0.8-1.8,1.4-2.9,1.9c-1.1,0.4-2.2,0.6-3.4,0.6
			c-1.2,0-2.3-0.2-3.4-0.6c-1.1-0.4-2-1.1-2.8-1.9c-0.8-0.8-1.5-1.8-1.9-2.8c-0.4-1-0.7-2.1-0.7-3.3c0-1.2,0.2-2.3,0.7-3.3
			c0.4-1,1.1-2,1.9-2.8c0.8-0.8,1.8-1.4,2.8-1.8s2.2-0.6,3.4-0.6c1.2,0,2.3,0.2,3.4,0.6c1.1,0.4,2,1,2.8,1.8
			c0.8,0.8,1.5,1.8,1.9,2.8C554.2,367.4,554.4,368.5,554.4,369.7z M545.6,376.9c1,0,1.9-0.2,2.8-0.5c0.9-0.4,1.6-0.9,2.3-1.6
			c0.7-0.7,1.2-1.5,1.6-2.4s0.5-1.8,0.5-2.8c0-1-0.2-1.9-0.5-2.8c-0.4-0.9-0.9-1.7-1.6-2.4c-0.7-0.7-1.5-1.2-2.3-1.6
			c-0.9-0.4-1.8-0.5-2.8-0.5c-1,0-1.9,0.2-2.7,0.5c-0.9,0.4-1.6,0.9-2.3,1.6c-0.7,0.7-1.2,1.5-1.6,2.4s-0.5,1.8-0.5,2.8
			c0,1,0.2,1.9,0.5,2.8c0.4,0.9,0.9,1.7,1.6,2.4c0.7,0.7,1.5,1.2,2.3,1.6C543.7,376.7,544.6,376.9,545.6,376.9z"/>
		<path class="st0" d="M573.7,377.8v-17.1l11.6,13.7v-13h1.4v16.9l-11.6-13.7v13.2H573.7z"/>
		<path class="st0" d="M606.8,377.8v-16.4h8.1v1.4h-6.6v5.1h6.6v1.4h-6.6v7.1h6.6v1.4H606.8z"/>
		<path class="st0" d="M648.1,365.6c-0.7-1-1.5-1.8-2.5-2.3s-2.1-0.8-3.3-0.8c-2,0-3.7,0.7-5,2.1c-1.3,1.4-1.9,3.2-1.9,5.3
			c0,1,0.2,1.9,0.5,2.8c0.3,0.9,0.8,1.6,1.5,2.3c0.7,0.7,1.4,1.2,2.2,1.5s1.7,0.5,2.7,0.5c1.8,0,3.3-0.5,4.5-1.6
			c1.2-1.1,1.7-2.5,1.8-4.2h-5.7v-1.3h7.3v0.2c0,2.6-0.7,4.7-2.1,6.1c-1.4,1.5-3.4,2.2-5.9,2.2c-2.5,0-4.5-0.8-6-2.4
			c-1.5-1.6-2.3-3.7-2.3-6.2c0-1.2,0.2-2.3,0.6-3.3c0.4-1,0.9-2,1.7-2.7c0.8-0.8,1.7-1.5,2.7-1.9c1-0.4,2.1-0.6,3.3-0.6
			c1.7,0,3.1,0.3,4.3,0.9c1.2,0.6,2.1,1.5,2.7,2.6L648.1,365.6z"/>
		<path class="st0" d="M686.1,369.7c0,1.2-0.2,2.3-0.7,3.3c-0.4,1-1.1,2-1.9,2.8c-0.8,0.8-1.8,1.4-2.9,1.9c-1.1,0.4-2.2,0.6-3.4,0.6
			c-1.2,0-2.3-0.2-3.4-0.6c-1.1-0.4-2-1.1-2.8-1.9c-0.8-0.8-1.5-1.8-1.9-2.8c-0.4-1-0.7-2.1-0.7-3.3c0-1.2,0.2-2.3,0.7-3.3
			c0.4-1,1.1-2,1.9-2.8c0.8-0.8,1.8-1.4,2.8-1.8s2.2-0.6,3.4-0.6c1.2,0,2.3,0.2,3.4,0.6c1.1,0.4,2,1,2.8,1.8
			c0.8,0.8,1.5,1.8,1.9,2.8C685.9,367.4,686.1,368.5,686.1,369.7z M677.4,376.9c1,0,1.9-0.2,2.8-0.5c0.9-0.4,1.6-0.9,2.3-1.6
			c0.7-0.7,1.2-1.5,1.6-2.4s0.5-1.8,0.5-2.8c0-1-0.2-1.9-0.5-2.8c-0.4-0.9-0.9-1.7-1.6-2.4c-0.7-0.7-1.5-1.2-2.3-1.6
			c-0.9-0.4-1.8-0.5-2.8-0.5c-1,0-1.9,0.2-2.7,0.5c-0.9,0.4-1.6,0.9-2.3,1.6c-0.7,0.7-1.2,1.5-1.6,2.4s-0.5,1.8-0.5,2.8
			c0,1,0.2,1.9,0.5,2.8c0.4,0.9,0.9,1.7,1.6,2.4c0.7,0.7,1.5,1.2,2.3,1.6C675.5,376.7,676.4,376.9,677.4,376.9z M675.9,359.8
			l2.4-3.9h1.8l-3.2,3.9H675.9z"/>
		<path class="st0" d="M718.6,364.4c-0.8-0.7-1.6-1.2-2.5-1.6s-1.7-0.5-2.7-0.5c-2.1,0-3.8,0.7-5.2,2s-2,3.1-2,5.2
			c0,1.1,0.2,2.1,0.5,2.9c0.3,0.9,0.8,1.6,1.5,2.3c0.7,0.7,1.4,1.2,2.3,1.5c0.8,0.3,1.8,0.5,2.7,0.5c0.9,0,1.9-0.2,2.8-0.5
			c0.9-0.3,1.7-0.8,2.5-1.4v1.7c-0.8,0.5-1.7,0.9-2.6,1.1c-0.9,0.3-1.8,0.4-2.7,0.4c-1.2,0-2.3-0.2-3.4-0.6c-1.1-0.4-2-1-2.8-1.8
			c-0.8-0.8-1.4-1.7-1.8-2.8c-0.4-1-0.6-2.2-0.6-3.4c0-1.2,0.2-2.4,0.6-3.4c0.4-1.1,1-2,1.8-2.7c0.8-0.8,1.7-1.3,2.8-1.8
			c1.1-0.4,2.2-0.6,3.4-0.6c1,0,2,0.1,2.9,0.4s1.7,0.7,2.4,1.3L718.6,364.4z"/>
		<path class="st0" d="M737.9,377.8v-16.4h1.5v16.4H737.9z"/>
		<path class="st0" d="M776.3,369.7c0,1.2-0.2,2.3-0.7,3.3c-0.4,1-1.1,2-1.9,2.8c-0.8,0.8-1.8,1.4-2.9,1.9c-1.1,0.4-2.2,0.6-3.4,0.6
			c-1.2,0-2.3-0.2-3.4-0.6c-1.1-0.4-2-1.1-2.8-1.9c-0.8-0.8-1.5-1.8-1.9-2.8c-0.4-1-0.7-2.1-0.7-3.3c0-1.2,0.2-2.3,0.7-3.3
			c0.4-1,1.1-2,1.9-2.8c0.8-0.8,1.8-1.4,2.8-1.8s2.2-0.6,3.4-0.6c1.2,0,2.3,0.2,3.4,0.6c1.1,0.4,2,1,2.8,1.8
			c0.8,0.8,1.5,1.8,1.9,2.8C776.1,367.4,776.3,368.5,776.3,369.7z M767.5,376.9c1,0,1.9-0.2,2.8-0.5c0.9-0.4,1.6-0.9,2.3-1.6
			c0.7-0.7,1.2-1.5,1.6-2.4s0.5-1.8,0.5-2.8c0-1-0.2-1.9-0.5-2.8c-0.4-0.9-0.9-1.7-1.6-2.4c-0.7-0.7-1.5-1.2-2.3-1.6
			c-0.9-0.4-1.8-0.5-2.8-0.5c-1,0-1.9,0.2-2.7,0.5c-0.9,0.4-1.6,0.9-2.3,1.6c-0.7,0.7-1.2,1.5-1.6,2.4s-0.5,1.8-0.5,2.8
			c0,1,0.2,1.9,0.5,2.8c0.4,0.9,0.9,1.7,1.6,2.4c0.7,0.7,1.5,1.2,2.3,1.6C765.6,376.7,766.5,376.9,767.5,376.9z"/>
	</g>
	<g>
		<path class="st1" d="M279.6,310.9c1.5-1.1,3-2.2,4.6-3.2c-2.1-3.7-3.2-7.7-3.2-12.1c0-7.6,3.2-14.1,9.5-19.5
			c6.3-5.4,14-8.2,23-8.2c8.9,0,16.6,2.7,23,8.2c5.1,4.3,8.2,9.4,9.2,15.1c7.1-1,14.3-2.1,21.4-2.8c-1.7-9.6-6.8-18-15.3-25.3
			c-10.6-9-23.4-13.6-38.3-13.6c-14.9,0-27.7,4.5-38.3,13.6c-10.6,9-15.9,19.9-15.9,32.5c0,9.3,2.8,17.5,8.5,24.9
			C271.7,317.3,275.5,314,279.6,310.9z"/>
		<path class="st0" d="M360.6,294.8c-4.8,0.6-9.7,1.1-14.6,1.7c-0.2,7.2-3.4,13.4-9.6,18.6c-6.4,5.4-14,8.1-23,8.1
			c-9,0-16.6-2.7-23-8.1c-1-0.8-1.8-1.7-2.7-2.5c-5.7,3.7-10.9,8-16.3,12.3c1.1,1.1,2.3,2.2,3.6,3.3c10.6,9,23.4,13.5,38.3,13.5
			c14.9,0,27.6-4.5,38.3-13.5c10.6-9,15.9-19.9,15.9-32.6c0-0.5,0-1.1,0-1.6C365.3,294.3,362.9,294.5,360.6,294.8z"/>
		<path class="st0" d="M402.6,292.1c-7.2,0-14.5,0.3-21.7,0.8v48.9h65v-18.5h-43.3V292.1z"/>
		<path class="st1" d="M402.6,286.3v-36.8h-21.7v37.6C388.1,286.6,395.4,286.3,402.6,286.3z"/>
		<path class="st0" d="M476.7,300.8c-4.7-1.2-9.4-2.2-14.1-3.2v44.1h21.7v-39C481.7,302.1,479.2,301.4,476.7,300.8z"/>
		<path class="st1" d="M479.1,295.5c1.7,0.4,3.4,0.9,5.1,1.3v-47.3h-21.7v42.3C468.1,292.9,473.6,294.1,479.1,295.5z"/>
		<path class="st0" d="M588.2,318.7c-10.1,0-20.1-0.3-30.1-1.1l31.2,24.2v-23.1C589,318.7,588.6,318.7,588.2,318.7z"/>
		<path class="st1" d="M524.3,306.9v-15.6l25.5,19.8c13.1,1.4,26.3,1.9,39.6,1.9v-63.4h-21.7v50.4l-65-50.4v52.2
			C509.8,303.6,517,305.4,524.3,306.9z"/>
		<path class="st0" d="M502.6,307.6v34.2h21.7v-29C517,311.2,509.8,309.5,502.6,307.6z"/>
		<path class="st0" d="M662.1,298.7c-0.8,6.3-3.9,11.8-9.4,16.4c-6.4,5.4-14,8.1-22.9,8.1v-9.9c-7.1,2.2-14.3,3.6-21.7,4.3v24h21.7
			c14.9,0,27.6-4.5,38.3-13.5c10.6-9,15.9-19.9,15.9-32.6c0-2.4-0.2-4.8-0.6-7.1C676.2,291.6,669.1,295.2,662.1,298.7z"/>
		<path class="st1" d="M620.7,310.4c3.1-0.7,6.1-1.6,9.1-2.7V268c8.9,0,16.6,2.7,22.9,8.2c5.5,4.7,8.6,10.1,9.4,16.4
			c6.6-3.3,13.2-6.4,20-9.3c-2.4-7.5-7.1-14.2-14-20.1c-10.6-9-23.4-13.6-38.3-13.6h-21.7v62.7C612.3,311.9,616.6,311.3,620.7,310.4
			z"/>
		<path class="st0" d="M709.7,279.4l-32.9,62.3h23.1l7-13.2l0.3-0.7h36.6l0.3,0.6l6.9,13.2h23.2l-37.1-70.2
			C728,273.8,718.8,276.5,709.7,279.4z M717,309.5l8.5-16.1l8.5,16.1H717z"/>
		<path class="st1" d="M734.4,266.3l-6.6-12.4l-2.4-4.3l-2.3,4.3l-9.7,18.4C720.4,270.1,727.4,268.1,734.4,266.3z"/>
		<path class="st2" d="M144.7,317.5c-36.1-9.4-44.8-41-21.2-60.8l0-0.1l-8.7-25.2c-49.3,29.2-35.9,84.7,35.3,100.7L144.7,317.5z"/>
		<path class="st3" d="M185.9,220.2l-23.9,92.3l-24-91.2c-7.3,2.3-13.8,5.1-19.6,8.2l7.4,25.5l0.1,0.3c0.1,0.1,0.1,0.3,0.1,0.4
			l36.6,100.2l33.6-103l7.5-25.6C198.3,224.6,192.4,222.2,185.9,220.2z"/>
		<path class="st2" d="M207.3,228.9l-8.8,25.4c19.6,14.9,25.5,52.1-19.8,62.8l-5,14.7C253,318.2,265.2,259,207.3,228.9z"/>
	</g>
</g>
<g>
	<path class="st1" d="M670,399.1v-11.3h1.8c1.6,0,2.7,0.1,3.4,0.2c0.7,0.2,1.2,0.4,1.7,0.8c0.6,0.5,1.1,1.1,1.4,1.9
		c0.3,0.8,0.5,1.7,0.5,2.7s-0.2,1.9-0.5,2.7c-0.3,0.8-0.8,1.4-1.4,1.9c-0.5,0.4-1.1,0.6-1.7,0.8c-0.6,0.2-1.6,0.2-3,0.2h-0.3H670z
		 M671.1,398.2h1.4c1.2,0,2-0.1,2.5-0.2c0.5-0.1,0.9-0.4,1.2-0.7c0.5-0.4,0.8-1,1.1-1.7c0.2-0.7,0.4-1.4,0.4-2.3
		c0-0.9-0.1-1.6-0.4-2.3c-0.2-0.7-0.6-1.2-1.1-1.6c-0.4-0.3-0.8-0.6-1.3-0.7c-0.5-0.1-1.4-0.2-2.7-0.2H672h-0.9V398.2z"/>
	<path class="st1" d="M683.5,399.1v-11.3h5.6v1h-4.6v3.5h4.6v1h-4.6v4.9h4.6v1H683.5z"/>
	<path class="st1" d="M693.1,397.2l0.9-0.5c0.2,0.6,0.5,1,0.9,1.3c0.4,0.3,0.9,0.5,1.5,0.5c0.7,0,1.3-0.2,1.7-0.6
		c0.4-0.4,0.6-1,0.6-1.8c0-0.5-0.1-1-0.4-1.4c-0.3-0.4-0.9-0.8-1.7-1.3c-1.1-0.6-1.9-1.1-2.3-1.6c-0.4-0.5-0.6-1-0.6-1.7
		c0-0.8,0.3-1.5,0.8-2c0.5-0.5,1.3-0.8,2.1-0.8c0.6,0,1.1,0.1,1.5,0.4s0.8,0.6,1,1.1l-0.8,0.5c-0.2-0.3-0.4-0.6-0.7-0.7
		s-0.7-0.3-1.1-0.3c-0.6,0-1,0.2-1.3,0.5c-0.3,0.3-0.5,0.8-0.5,1.3c0,0.8,0.7,1.5,2,2.2c0.2,0.1,0.4,0.2,0.5,0.3
		c1,0.5,1.6,1,1.9,1.5s0.5,1.1,0.5,1.8c0,1-0.3,1.8-0.9,2.4c-0.6,0.6-1.4,0.9-2.4,0.9c-0.7,0-1.4-0.2-1.9-0.6
		S693.4,397.9,693.1,397.2z"/>
	<path class="st1" d="M704.3,399.1v-11.3h1.8c1.6,0,2.7,0.1,3.4,0.2c0.7,0.2,1.2,0.4,1.7,0.8c0.6,0.5,1.1,1.1,1.4,1.9
		c0.3,0.8,0.5,1.7,0.5,2.7s-0.2,1.9-0.5,2.7c-0.3,0.8-0.8,1.4-1.4,1.9c-0.5,0.4-1.1,0.6-1.7,0.8c-0.6,0.2-1.6,0.2-3,0.2H706H704.3z
		 M705.3,398.2h1.4c1.2,0,2-0.1,2.5-0.2c0.5-0.1,0.9-0.4,1.2-0.7c0.5-0.4,0.8-1,1.1-1.7c0.2-0.7,0.4-1.4,0.4-2.3
		c0-0.9-0.1-1.6-0.4-2.3c-0.2-0.7-0.6-1.2-1.1-1.6c-0.4-0.3-0.8-0.6-1.3-0.7c-0.5-0.1-1.4-0.2-2.7-0.2h-0.2h-0.9V398.2z"/>
	<path class="st1" d="M717.7,399.1v-11.3h5.6v1h-4.6v3.5h4.6v1h-4.6v4.9h4.6v1H717.7z"/>
	<path class="st1" d="M738,399.1v-10.3h-2l0.5-0.9h2.6v11.2H738z"/>
	<path class="st1" d="M751.4,394.2c-0.3,0.2-0.6,0.3-0.9,0.4c-0.3,0.1-0.6,0.1-0.9,0.1c-1,0-1.8-0.3-2.4-1c-0.6-0.6-0.9-1.5-0.9-2.5
		c0-1.1,0.3-1.9,1-2.6s1.6-1,2.7-1c1.1,0,1.9,0.3,2.5,0.9s0.9,1.5,0.9,2.5c0,0.6-0.2,1.3-0.5,2c-0.3,0.7-0.9,1.6-1.8,2.8l-2.7,3.7
		l-0.8-0.5L751.4,394.2z M752.4,391.1c0-0.8-0.2-1.4-0.7-1.9s-1.1-0.7-1.8-0.7c-0.8,0-1.4,0.3-1.8,0.8c-0.5,0.5-0.7,1.2-0.7,2
		c0,0.8,0.2,1.4,0.7,1.9s1.1,0.7,1.8,0.7c0.8,0,1.4-0.3,1.8-0.8C752.1,392.6,752.4,391.9,752.4,391.1z"/>
	<path class="st1" d="M760,393c-0.6-0.2-1-0.5-1.3-1c-0.3-0.4-0.5-1-0.5-1.6c0-0.8,0.3-1.5,0.9-2c0.6-0.5,1.4-0.8,2.3-0.8
		c1,0,1.7,0.3,2.3,0.8s0.9,1.2,0.9,2.1c0,0.6-0.2,1.1-0.5,1.5c-0.3,0.4-0.7,0.7-1.3,0.9c0.7,0.2,1.2,0.5,1.6,1.1
		c0.4,0.5,0.6,1.2,0.6,1.9c0,1-0.3,1.9-1,2.5s-1.5,0.9-2.6,0.9c-1.1,0-2-0.3-2.6-0.9c-0.6-0.6-1-1.4-1-2.4c0-0.8,0.2-1.4,0.6-2
		C758.8,393.5,759.3,393.1,760,393z M761.4,398.4c0.8,0,1.4-0.2,1.9-0.7c0.5-0.4,0.7-1,0.7-1.8c0-0.8-0.2-1.4-0.7-1.8
		c-0.5-0.5-1.1-0.7-1.9-0.7c-0.8,0-1.4,0.2-1.9,0.7c-0.4,0.4-0.7,1.1-0.7,1.8c0,0.8,0.2,1.4,0.7,1.8
		C760,398.2,760.6,398.4,761.4,398.4z M761.4,392.5c0.7,0,1.2-0.2,1.5-0.5s0.6-0.8,0.6-1.5s-0.2-1.1-0.6-1.5
		c-0.4-0.4-0.9-0.5-1.5-0.5c-0.6,0-1.2,0.2-1.5,0.5c-0.4,0.4-0.6,0.9-0.6,1.5c0,0.6,0.2,1.1,0.6,1.5
		C760.2,392.4,760.8,392.5,761.4,392.5z"/>
	<path class="st1" d="M771.5,393c-0.6-0.2-1-0.5-1.3-1c-0.3-0.4-0.5-1-0.5-1.6c0-0.8,0.3-1.5,0.9-2c0.6-0.5,1.4-0.8,2.3-0.8
		c1,0,1.7,0.3,2.3,0.8s0.9,1.2,0.9,2.1c0,0.6-0.2,1.1-0.5,1.5c-0.3,0.4-0.7,0.7-1.3,0.9c0.7,0.2,1.2,0.5,1.6,1.1
		c0.4,0.5,0.6,1.2,0.6,1.9c0,1-0.3,1.9-1,2.5s-1.5,0.9-2.6,0.9c-1.1,0-2-0.3-2.6-0.9c-0.6-0.6-1-1.4-1-2.4c0-0.8,0.2-1.4,0.6-2
		C770.3,393.5,770.8,393.1,771.5,393z M772.9,398.4c0.8,0,1.4-0.2,1.9-0.7c0.5-0.4,0.7-1,0.7-1.8c0-0.8-0.2-1.4-0.7-1.8
		c-0.5-0.5-1.1-0.7-1.9-0.7c-0.8,0-1.4,0.2-1.9,0.7c-0.4,0.4-0.7,1.1-0.7,1.8c0,0.8,0.2,1.4,0.7,1.8
		C771.5,398.2,772.1,398.4,772.9,398.4z M772.9,392.5c0.7,0,1.2-0.2,1.5-0.5s0.6-0.8,0.6-1.5s-0.2-1.1-0.6-1.5
		c-0.4-0.4-0.9-0.5-1.5-0.5c-0.6,0-1.2,0.2-1.5,0.5c-0.4,0.4-0.6,0.9-0.6,1.5c0,0.6,0.2,1.1,0.6,1.5
		C771.8,392.4,772.3,392.5,772.9,392.5z"/>
</g>
</svg>
